<svg width="514" height="125" viewBox="0 0 514 125" fill="none" xmlns="http://www.w3.org/2000/svg">
<path d="M89.1664 96.0877C62.6476 96.0877 41.1748 74.4841 41.1748 48.0438C41.1748 21.6036 62.7549 0 89.1664 0C115.578 0 137.158 21.6036 137.158 48.0438C137.158 74.4841 115.578 96.0877 89.1664 96.0877ZM89.1664 10.6406C68.5526 10.6406 51.9112 27.4076 51.9112 47.9364C51.9112 68.4652 68.6599 85.2321 89.1664 85.2321C109.673 85.2321 126.422 68.4652 126.422 47.9364C126.422 27.4076 109.673 10.6406 89.1664 10.6406Z" fill="white"/>
<path d="M89.1656 96.0875H56.8491C18.735 96.0875 3.05987 55.0299 0.0536819 33.2114C-0.161046 31.7066 0.268409 30.0944 1.34205 28.9122C2.41568 27.7299 3.81141 27.085 5.42187 27.085H50.5147C85.3005 27.085 94.4264 62.2311 94.4264 80.8253V90.7135C94.4264 93.723 92.0644 96.0875 89.0583 96.0875H89.1656ZM11.9711 37.9405C15.2993 52.0205 26.4652 85.3395 56.8491 85.3395H83.7974V80.8253C83.7974 79.1056 83.2606 37.833 50.622 37.833H11.9711V37.9405Z" fill="white"/>
<path d="M122.234 96.0875H89.918C86.9118 96.0875 84.5498 93.723 84.5498 90.7135V80.8253C84.5498 62.2311 93.7831 27.085 128.462 27.085H173.554C175.057 27.085 176.561 27.7299 177.634 28.9122C178.6 30.0944 179.137 31.5991 178.923 33.2114C176.024 54.9224 160.349 96.0875 122.127 96.0875H122.234ZM95.2862 85.3395H122.234C152.618 85.3395 163.784 51.913 167.113 37.9405H128.569C95.823 37.9405 95.3935 79.1056 95.3935 80.9328V85.4469L95.2862 85.3395Z" fill="white"/>
<path d="M88.3072 125C85.301 125 82.939 122.636 82.939 119.626V70.8301C82.939 67.8206 85.301 65.4561 88.3072 65.4561C91.3133 65.4561 93.6753 67.8206 93.6753 70.8301V119.626C93.6753 122.636 91.3133 125 88.3072 125Z" fill="white"/>
<path d="M192.208 97.6224L221.532 62.1046H248.708L219.384 97.6224H192.208ZM192.208 110.768V97.6224L206.491 92.8193H248.609V110.768H192.208ZM192.159 66.9077V48.9592H248.708V62.1046L234.425 66.9077H192.159Z" fill="white"/>
<path d="M253.273 110.768V48.9592H275.393V110.768H253.273ZM264.27 36.4788C260.983 36.4788 258.245 35.3833 256.054 33.1924C253.863 30.9173 252.768 28.0944 252.768 24.7238C252.768 21.4374 253.863 18.6567 256.054 16.3815C258.245 14.1063 260.983 12.9688 264.27 12.9688C267.725 12.9688 270.505 14.1063 272.612 16.3815C274.803 18.6567 275.898 21.4374 275.898 24.7238C275.898 28.0944 274.803 30.9173 272.612 33.1924C270.505 35.3833 267.725 36.4788 264.27 36.4788Z" fill="white"/>
<path d="M323.221 110.768V75.8819C323.221 73.0169 322.378 70.7839 320.693 69.1828C319.007 67.4975 316.859 66.6549 314.246 66.6549C312.477 66.6549 310.876 67.0341 309.443 67.7925C308.095 68.5509 307.042 69.6042 306.283 70.9524C305.525 72.3007 305.146 73.9438 305.146 75.8819L296.551 71.8372C296.551 66.8656 297.646 62.6102 299.837 59.071C302.028 55.4476 305.019 52.6669 308.811 50.7288C312.687 48.7064 317.069 47.6952 321.957 47.6952C326.423 47.6952 330.383 48.7485 333.838 50.8552C337.377 52.8775 340.158 55.6161 342.18 59.071C344.203 62.5259 345.214 66.4442 345.214 70.826V110.768H323.221ZM283.152 110.768V48.9592H305.146V110.768H283.152Z" fill="white"/>
<path d="M391.856 110.768V75.8819C391.856 73.0169 391.013 70.7839 389.328 69.1828C387.642 67.4975 385.494 66.6549 382.881 66.6549C381.112 66.6549 379.511 67.0341 378.078 67.7925C376.73 68.5509 375.677 69.6042 374.918 70.9524C374.16 72.3007 373.781 73.9438 373.781 75.8819L365.186 71.8372C365.186 66.8656 366.281 62.6102 368.472 59.071C370.663 55.4476 373.654 52.6669 377.446 50.7288C381.322 48.7064 385.704 47.6952 390.592 47.6952C395.058 47.6952 399.018 48.7485 402.473 50.8552C406.012 52.8775 408.793 55.6161 410.815 59.071C412.838 62.5259 413.849 66.4442 413.849 70.826V110.768H391.856ZM351.787 110.768V48.9592H373.781V110.768H351.787Z" fill="white"/>
<path d="M420.296 110.768V48.9592H442.416V110.768H420.296ZM431.293 36.4788C428.006 36.4788 425.268 35.3833 423.077 33.1924C420.886 30.9173 419.791 28.0944 419.791 24.7238C419.791 21.4374 420.886 18.6567 423.077 16.3815C425.268 14.1063 428.006 12.9688 431.293 12.9688C434.748 12.9688 437.528 14.1063 439.635 16.3815C441.826 18.6567 442.921 21.4374 442.921 24.7238C442.921 28.0944 441.826 30.9173 439.635 33.1924C437.528 35.3833 434.748 36.4788 431.293 36.4788Z" fill="white"/>
<path d="M475.961 112.032C470.231 112.032 465.133 110.641 460.666 107.861C456.2 105.08 452.703 101.288 450.175 96.4848C447.647 91.5974 446.383 86.078 446.383 79.9267C446.383 73.691 447.647 68.1295 450.175 63.2421C452.703 58.3548 456.2 54.5628 460.666 51.8663C465.133 49.0856 470.231 47.6952 475.961 47.6952C479.837 47.6952 483.376 48.4115 486.578 49.844C489.78 51.1922 492.392 53.1303 494.415 55.6583C496.521 58.1862 497.785 61.0513 498.207 64.2533V95.3472C497.785 98.6336 496.521 101.541 494.415 104.069C492.392 106.512 489.78 108.45 486.578 109.883C483.376 111.315 479.837 112.032 475.961 112.032ZM480.637 92.4401C484.261 92.4401 487.168 91.2604 489.359 88.9009C491.634 86.5415 492.772 83.5079 492.772 79.8003C492.772 77.3566 492.266 75.2078 491.255 73.354C490.244 71.5001 488.811 70.0255 486.957 68.9301C485.188 67.8346 483.123 67.2869 480.764 67.2869C478.404 67.2869 476.298 67.8346 474.444 68.9301C472.674 70.0255 471.242 71.5423 470.146 73.4804C469.135 75.3342 468.63 77.4408 468.63 79.8003C468.63 82.244 469.135 84.4349 470.146 86.373C471.157 88.2268 472.59 89.7014 474.444 90.7969C476.298 91.8923 478.362 92.4401 480.637 92.4401ZM491.887 110.768V94.2096L495.047 79.0419L491.887 64.1269V48.9592H513.501V110.768H491.887Z" fill="white"/>
</svg>
